# xmcd
#
# Track frame offsets:
#	150
#	15147
#	31235
#	45422
#	59125
#	71675
#	86370
#	114077
#	124905
#	139447
#	157057
#	175795
#	192350
#	208377
#	231790
#
# Disc length: 3288 seconds
#
# Revision: 1
# Processed by: cddbd v1.5.1PL0 Copyright (c) Steve Scherf et al.
# Submitted via: EasyCDDAExtractor 6.2.0.3
#
DISCID=cf0cd60f
DTITLE=Steve Future Band - First Take
DYEAR=1994
DGENRE=Blues
TTITLE0=He ain't Blue Enough, yu know
TTITLE1=Laundry
TTITLE2=Stop it, Stop it
TTITLE3=Hound Dog
TTITLE4=Move It On Over
TTITLE5=Unbeliieveble Blues
TTITLE6=Stormy Monday
TTITLE7=My Babe
TTITLE8=Who Told You
TTITLE9=I Want My Baby Back
TTITLE10=Too Late
TTITLE11=Messing With the Kid
TTITLE12=Shake Your Money Maker
TTITLE13=Sent Igår Kväll
TTITLE14=En trlst Du kan spola han i höst
EXTD=
EXTT0=
EXTT1=
EXTT2=
EXTT3=
EXTT4=
EXTT5=
EXTT6=
EXTT7=
EXTT8=
EXTT9=
EXTT10=
EXTT11=
EXTT12=
EXTT13=
EXTT14=
PLAYORDER=
